<?xml version="1.0" encoding="UTF-8"?> <svg xmlns="http://www.w3.org/2000/svg" width="781" height="314" viewBox="0 0 781 314" fill="none"><rect width="781" height="314" rx="4" fill="#1C1E45"></rect><path d="M217 207.372V190.791H219.132V196.733C219.132 196.84 219.187 196.894 219.298 196.894C219.392 196.894 219.479 196.84 219.558 196.733C220.032 196.142 220.612 195.716 221.299 195.455C221.994 195.186 222.772 195.052 223.632 195.052C224.382 195.052 225.116 195.178 225.835 195.431C226.553 195.677 227.201 196.061 227.777 196.583C228.361 197.097 228.827 197.754 229.175 198.552C229.522 199.343 229.696 200.287 229.696 201.385C229.696 202.475 229.522 203.419 229.175 204.217C228.827 205.016 228.361 205.676 227.777 206.198C227.201 206.712 226.553 207.096 225.835 207.349C225.116 207.595 224.382 207.718 223.632 207.718C221.761 207.718 220.356 207.088 219.416 205.829C219.329 205.707 219.242 205.645 219.155 205.645C219.037 205.645 218.958 205.707 218.919 205.829L218.421 207.372H217ZM219.013 201.385C219.013 202.82 219.412 203.929 220.209 204.712C221.015 205.488 222.037 205.875 223.277 205.875C224.524 205.875 225.547 205.488 226.344 204.712C227.142 203.929 227.54 202.82 227.54 201.385C227.54 199.941 227.142 198.832 226.344 198.057C225.547 197.282 224.524 196.894 223.277 196.894C222.037 196.894 221.015 197.282 220.209 198.057C219.412 198.832 219.013 199.941 219.013 201.385Z" fill="#F3F4FA"></path><path d="M230.898 195.858V195.397H233.054L236.583 205.461C236.622 205.584 236.701 205.645 236.82 205.645C236.938 205.645 237.017 205.584 237.057 205.461L240.586 195.397H242.741V195.858L238.122 208.754C237.854 209.506 237.526 210.101 237.139 210.539C236.76 210.977 236.279 211.287 235.695 211.472C235.118 211.656 234.396 211.748 233.527 211.748H231.253V209.906H235.067C235.327 209.906 235.485 209.829 235.541 209.675L236.228 207.879C236.299 207.695 236.306 207.564 236.251 207.488C236.196 207.411 236.093 207.372 235.943 207.372H235.02L230.898 195.858Z" fill="#F3F4FA"></path><path d="M251.794 207.372V190.791H256.911C258.49 190.791 259.864 191.075 261.032 191.643C262.208 192.204 263.116 193.094 263.756 194.315C264.403 195.535 264.727 197.124 264.727 199.082C264.727 201.039 264.403 202.628 263.756 203.849C263.116 205.069 262.208 205.964 261.032 206.532C259.864 207.092 258.49 207.372 256.911 207.372H251.794ZM254.068 205.392H256.911C258.079 205.392 259.074 205.2 259.895 204.816C260.724 204.425 261.356 203.772 261.79 202.859C262.232 201.937 262.453 200.678 262.453 199.082C262.453 197.485 262.232 196.23 261.79 195.316C261.356 194.395 260.724 193.743 259.895 193.359C259.074 192.967 258.079 192.772 256.911 192.772H254.068V205.392Z" fill="#F3F4FA"></path><path d="M266.738 201.385C266.738 200.08 266.987 198.955 267.484 198.011C267.989 197.059 268.704 196.33 269.628 195.823C270.559 195.309 271.665 195.052 272.944 195.052C274.223 195.052 275.297 195.301 276.165 195.8C277.041 196.291 277.701 196.971 278.143 197.838C278.593 198.706 278.818 199.696 278.818 200.809V201.96H268.893C268.98 203.158 269.351 204.118 270.007 204.839C270.67 205.561 271.665 205.922 272.991 205.922C274.144 205.922 274.996 205.699 275.549 205.254C276.102 204.808 276.465 204.248 276.639 203.572H278.865C278.778 204.025 278.605 204.494 278.344 204.977C278.084 205.461 277.72 205.91 277.255 206.325C276.797 206.739 276.216 207.077 275.514 207.338C274.811 207.591 273.97 207.718 272.991 207.718C270.994 207.718 269.45 207.154 268.36 206.025C267.279 204.889 266.738 203.342 266.738 201.385ZM268.941 200.233H276.686C276.639 199.228 276.315 198.414 275.715 197.792C275.115 197.163 274.191 196.848 272.944 196.848C271.823 196.848 270.907 197.136 270.196 197.711C269.493 198.287 269.075 199.128 268.941 200.233Z" fill="#F3F4FA"></path><path d="M280.051 195.858V195.397H282.207L285.736 205.461C285.775 205.584 285.854 205.645 285.973 205.645C286.091 205.645 286.17 205.584 286.21 205.461L289.739 195.397H291.894V195.858L287.773 207.372H284.173L280.051 195.858Z" fill="#F3F4FA"></path><path d="M293.107 201.385C293.107 200.08 293.356 198.955 293.853 198.011C294.359 197.059 295.073 196.33 295.997 195.823C296.929 195.309 298.034 195.052 299.313 195.052C300.592 195.052 301.666 195.301 302.534 195.8C303.411 196.291 304.07 196.971 304.512 197.838C304.962 198.706 305.187 199.696 305.187 200.809V201.96H295.263C295.349 203.158 295.721 204.118 296.376 204.839C297.039 205.561 298.034 205.922 299.36 205.922C300.513 205.922 301.366 205.699 301.918 205.254C302.471 204.808 302.834 204.248 303.008 203.572H305.234C305.148 204.025 304.974 204.494 304.713 204.977C304.453 205.461 304.09 205.91 303.624 206.325C303.166 206.739 302.586 207.077 301.883 207.338C301.18 207.591 300.339 207.718 299.36 207.718C297.363 207.718 295.819 207.154 294.73 206.025C293.648 204.889 293.107 203.342 293.107 201.385ZM295.31 200.233H303.055C303.008 199.228 302.684 198.414 302.084 197.792C301.484 197.163 300.56 196.848 299.313 196.848C298.192 196.848 297.276 197.136 296.565 197.711C295.863 198.287 295.444 199.128 295.31 200.233Z" fill="#F3F4FA"></path><path d="M306.175 207.372V206.912L310.817 201.2L306.506 195.858V195.397H308.721L312.108 199.715C312.171 199.792 312.246 199.83 312.333 199.83C312.42 199.83 312.495 199.792 312.558 199.715L315.981 195.397H318.183V195.881L313.659 201.454L318.065 206.912V207.372H315.838L312.368 202.939C312.305 202.862 312.23 202.824 312.143 202.824C312.057 202.824 311.982 202.862 311.918 202.939L308.401 207.372H306.175Z" fill="#F3F4FA"></path><path d="M333.507 201.385C333.507 202.475 333.334 203.419 332.986 204.217C332.639 205.016 332.173 205.676 331.589 206.198C331.012 206.712 330.365 207.096 329.646 207.349C328.928 207.595 328.194 207.718 327.444 207.718C326.583 207.718 325.805 207.583 325.111 207.315C324.424 207.046 323.843 206.62 323.37 206.037C323.291 205.929 323.204 205.875 323.109 205.875C322.999 205.875 322.943 205.937 322.943 206.06V211.748H320.812V195.397H322.92V196.733C322.92 196.855 322.975 196.917 323.085 196.917C323.18 196.917 323.267 196.863 323.346 196.756C323.835 196.157 324.424 195.723 325.111 195.455C325.805 195.186 326.583 195.052 327.444 195.052C328.194 195.052 328.928 195.178 329.646 195.431C330.365 195.677 331.012 196.061 331.589 196.583C332.173 197.097 332.639 197.754 332.986 198.552C333.334 199.343 333.507 200.287 333.507 201.385ZM331.352 201.385C331.352 199.941 330.953 198.832 330.156 198.057C329.358 197.282 328.336 196.894 327.088 196.894C325.849 196.894 324.826 197.282 324.021 198.057C323.224 198.832 322.825 199.941 322.825 201.385C322.825 202.82 323.224 203.929 324.021 204.712C324.826 205.488 325.849 205.875 327.088 205.875C328.336 205.875 329.358 205.488 330.156 204.712C330.953 203.929 331.352 202.82 331.352 201.385Z" fill="#F3F4FA"></path><path d="M335.391 201.385C335.391 200.08 335.639 198.955 336.137 198.011C336.642 197.059 337.356 196.33 338.28 195.823C339.212 195.309 340.317 195.052 341.596 195.052C342.875 195.052 343.949 195.301 344.818 195.8C345.694 196.291 346.353 196.971 346.795 197.838C347.245 198.706 347.47 199.696 347.47 200.809V201.96H337.546C337.633 203.158 338.004 204.118 338.659 204.839C339.322 205.561 340.317 205.922 341.644 205.922C342.796 205.922 343.649 205.699 344.202 205.254C344.754 204.808 345.118 204.248 345.291 203.572H347.518C347.431 204.025 347.257 204.494 346.997 204.977C346.736 205.461 346.373 205.91 345.907 206.325C345.449 206.739 344.869 207.077 344.166 207.338C343.464 207.591 342.623 207.718 341.644 207.718C339.646 207.718 338.103 207.154 337.013 206.025C335.931 204.889 335.391 203.342 335.391 201.385ZM337.593 200.233H345.339C345.291 199.228 344.968 198.414 344.368 197.792C343.767 197.163 342.844 196.848 341.596 196.848C340.475 196.848 339.559 197.136 338.849 197.711C338.146 198.287 337.728 199.128 337.593 200.233Z" fill="#F3F4FA"></path><path d="M350.095 207.372V195.397H352.227V197.009C352.227 197.116 352.282 197.17 352.393 197.17C352.503 197.17 352.582 197.109 352.63 196.986C352.906 196.41 353.277 195.996 353.743 195.742C354.217 195.481 354.872 195.351 355.709 195.351H357.083V197.378H355.377C354.351 197.378 353.569 197.623 353.032 198.114C352.495 198.606 352.227 199.427 352.227 200.579V207.372H350.095Z" fill="#F3F4FA"></path><path d="M357.955 197.239V195.397H360.797V192.173H362.929V195.397H366.482V197.239H362.929V205.185C362.929 205.292 362.96 205.376 363.023 205.438C363.087 205.499 363.173 205.53 363.284 205.53H366.482V207.372H364.35C361.981 207.372 360.797 206.221 360.797 203.918V197.239H357.955Z" fill="#F3F4FA"></path><path d="M373.307 195.052C374.279 195.052 375.163 195.194 375.96 195.478C376.758 195.762 377.405 196.211 377.903 196.825C378.408 197.431 378.7 198.222 378.779 199.197H376.6C376.521 198.375 376.201 197.777 375.641 197.401C375.08 197.017 374.302 196.825 373.307 196.825C372.313 196.825 371.594 196.99 371.152 197.32C370.71 197.642 370.489 198.053 370.489 198.552C370.489 199.043 370.682 199.404 371.069 199.634C371.456 199.857 372.068 200.045 372.905 200.199L374.658 200.521C375.408 200.659 376.102 200.851 376.742 201.097C377.381 201.335 377.895 201.684 378.282 202.145C378.676 202.605 378.874 203.231 378.874 204.022C378.874 205.204 378.428 206.117 377.535 206.762C376.651 207.399 375.416 207.718 373.829 207.718C372.771 207.718 371.819 207.568 370.974 207.269C370.13 206.969 369.451 206.513 368.937 205.898C368.424 205.284 368.128 204.509 368.049 203.572H370.216C370.311 204.34 370.678 204.927 371.318 205.334C371.965 205.741 372.802 205.945 373.829 205.945C374.863 205.945 375.605 205.772 376.055 205.426C376.513 205.081 376.742 204.651 376.742 204.137C376.742 203.615 376.529 203.239 376.102 203.008C375.676 202.778 375.037 202.586 374.184 202.433L372.431 202.11C371.634 201.964 370.927 201.765 370.311 201.511C369.695 201.25 369.214 200.89 368.866 200.429C368.527 199.961 368.357 199.343 368.357 198.575C368.357 197.424 368.819 196.548 369.743 195.95C370.666 195.351 371.855 195.052 373.307 195.052Z" fill="#F3F4FA"></path><path d="M260.839 103V121.408H271.895L271.912 158.224L260.839 158.225V176.633H275.316C288.398 176.633 294.284 170.845 294.284 157.77V122.09C294.284 108.983 288.384 103 275.302 103L260.839 103ZM249.089 103H217V176.633H249.089V158.226L238.016 158.225V121.408H249.089V103Z" fill="url(#paint0_linear_2220_487)"></path><path d="M300.611 103L346.71 176.633H374.731L328.632 103H300.611Z" fill="url(#paint1_linear_2220_487)"></path><path d="M301.063 176.633H333.603L317.333 150.498L301.063 176.633Z" fill="url(#paint2_linear_2220_487)"></path><path d="M375.183 103L342.642 103L358.913 128.908L375.183 103Z" fill="url(#paint3_linear_2220_487)"></path><path d="M390.547 125.236L390.547 114.207H397.1V125.343H408.625V131.479H397.1V157.073C397.1 157.423 397.23 157.662 397.439 157.872C397.649 158.082 397.881 158.296 398.23 158.296H408.625V163.977H401.548C394.109 163.977 390.547 160.514 390.547 153.061V125.236Z" fill="#F3F4FA"></path><path d="M414.953 125.342H421.506V130.342C421.506 130.692 421.67 130.992 422.053 130.992C422.401 130.992 422.61 130.765 422.784 130.397C424.454 126.725 427.168 125.115 432.353 125.115H436.647V131.706H431.223C424.854 131.706 421.506 134.588 421.506 141.933V163.977H414.953V125.342Z" fill="#F3F4FA"></path><path d="M546.568 124.66C558.536 124.66 565.003 131.956 565.003 142.624V146.477H534.078C534.605 154.137 538.461 159.277 546.744 159.277C553.904 159.277 557.103 156.076 558.191 151.704H565.004C563.88 157.51 558.86 165.113 546.682 165.113C534.503 165.113 527.266 157.284 527.266 144.798C527.266 132.312 534.6 124.66 546.568 124.66ZM558.457 141.043C558.176 134.642 554.322 130.342 546.566 130.342C539.581 130.342 534.841 133.978 534.033 141.043H558.492H558.457Z" fill="#F3F4FA"></path><path d="M470.54 125.342V130.008C470.54 130.394 470.492 130.611 470.107 130.611C469.721 130.611 469.511 130.401 469.301 130.086C466.218 126.405 461.924 124.66 456.529 124.66C447.246 124.66 437.773 130.902 437.773 144.886C437.773 158.871 447.246 165.113 456.529 165.113C461.924 165.113 466.183 163.522 469.371 159.737C469.581 159.457 469.826 159.211 470.177 159.211C470.527 159.211 470.766 159.5 470.766 159.886V163.976L477.319 163.976V125.342H470.54ZM457.742 159.447C450.001 159.447 444.531 154.092 444.531 144.874C444.531 135.657 449.999 130.611 457.741 130.611C465.483 130.611 471.093 135.739 471.093 144.957C471.093 154.175 465.484 159.447 457.742 159.447Z" fill="#F3F4FA"></path><path d="M515.509 114.207V130.009C515.509 130.395 515.461 130.612 515.075 130.612C514.69 130.612 514.48 130.402 514.27 130.086C511.187 126.406 506.893 124.661 501.498 124.661C492.215 124.661 482.742 130.903 482.742 144.887C482.742 158.872 492.215 165.113 501.498 165.113C506.893 165.113 511.152 163.523 514.34 159.738C514.55 159.457 514.795 159.212 515.146 159.212C515.496 159.212 515.735 159.501 515.735 159.886V163.977H522.288V114.207H515.509ZM502.711 159.448C494.969 159.448 489.5 154.093 489.5 144.875C489.5 135.657 494.968 130.612 502.71 130.612C510.451 130.612 516.062 135.74 516.062 144.958C516.062 154.176 510.453 159.448 502.711 159.448Z" fill="#F3F4FA"></path><defs><linearGradient id="paint0_linear_2220_487" x1="-184.386" y1="-31.216" x2="-148.082" y2="265.136" gradientUnits="userSpaceOnUse"><stop offset="0.71" stop-color="#2BB673"></stop><stop offset="0.91" stop-color="#345BAA"></stop></linearGradient><linearGradient id="paint1_linear_2220_487" x1="-184.386" y1="-31.216" x2="-148.082" y2="265.136" gradientUnits="userSpaceOnUse"><stop offset="0.71" stop-color="#2BB673"></stop><stop offset="0.91" stop-color="#345BAA"></stop></linearGradient><linearGradient id="paint2_linear_2220_487" x1="-184.386" y1="-31.216" x2="-148.082" y2="265.136" gradientUnits="userSpaceOnUse"><stop offset="0.71" stop-color="#2BB673"></stop><stop offset="0.91" stop-color="#345BAA"></stop></linearGradient><linearGradient id="paint3_linear_2220_487" x1="-184.386" y1="-31.216" x2="-148.082" y2="265.136" gradientUnits="userSpaceOnUse"><stop offset="0.71" stop-color="#2BB673"></stop><stop offset="0.91" stop-color="#345BAA"></stop></linearGradient></defs></svg> 