<?xml version="1.0" encoding="UTF-8"?> <svg xmlns="http://www.w3.org/2000/svg" width="784" height="314" viewBox="0 0 784 314" fill="none"><rect width="784" height="314" rx="4" fill="white"></rect><path d="M218 207.372V190.791H220.132V196.733C220.132 196.84 220.187 196.894 220.298 196.894C220.392 196.894 220.479 196.84 220.558 196.733C221.032 196.142 221.612 195.716 222.299 195.455C222.994 195.186 223.772 195.052 224.632 195.052C225.382 195.052 226.116 195.178 226.835 195.431C227.553 195.677 228.201 196.061 228.777 196.583C229.361 197.097 229.827 197.754 230.175 198.552C230.522 199.343 230.696 200.287 230.696 201.385C230.696 202.475 230.522 203.419 230.175 204.217C229.827 205.016 229.361 205.676 228.777 206.198C228.201 206.712 227.553 207.096 226.835 207.349C226.116 207.595 225.382 207.718 224.632 207.718C222.761 207.718 221.356 207.088 220.416 205.829C220.329 205.707 220.242 205.645 220.155 205.645C220.037 205.645 219.958 205.707 219.919 205.829L219.421 207.372H218ZM220.013 201.385C220.013 202.82 220.412 203.929 221.209 204.712C222.015 205.488 223.037 205.875 224.277 205.875C225.524 205.875 226.547 205.488 227.344 204.712C228.142 203.929 228.54 202.82 228.54 201.385C228.54 199.941 228.142 198.832 227.344 198.057C226.547 197.282 225.524 196.894 224.277 196.894C223.037 196.894 222.015 197.282 221.209 198.057C220.412 198.832 220.013 199.941 220.013 201.385Z" fill="#7B808C"></path><path d="M231.898 195.858V195.397H234.054L237.583 205.461C237.622 205.584 237.701 205.645 237.82 205.645C237.938 205.645 238.017 205.584 238.057 205.461L241.586 195.397H243.741V195.858L239.122 208.754C238.854 209.506 238.526 210.101 238.139 210.539C237.76 210.977 237.279 211.287 236.695 211.472C236.118 211.656 235.396 211.748 234.527 211.748H232.253V209.906H236.067C236.327 209.906 236.485 209.829 236.541 209.675L237.228 207.879C237.299 207.695 237.306 207.564 237.251 207.488C237.196 207.411 237.093 207.372 236.943 207.372H236.02L231.898 195.858Z" fill="#7B808C"></path><path d="M252.794 207.372V190.791H257.911C259.49 190.791 260.864 191.075 262.032 191.643C263.208 192.204 264.116 193.094 264.756 194.315C265.403 195.535 265.727 197.124 265.727 199.082C265.727 201.039 265.403 202.628 264.756 203.849C264.116 205.069 263.208 205.964 262.032 206.532C260.864 207.092 259.49 207.372 257.911 207.372H252.794ZM255.068 205.392H257.911C259.079 205.392 260.074 205.2 260.895 204.816C261.724 204.425 262.356 203.772 262.79 202.859C263.232 201.937 263.453 200.678 263.453 199.082C263.453 197.485 263.232 196.23 262.79 195.316C262.356 194.395 261.724 193.743 260.895 193.359C260.074 192.967 259.079 192.772 257.911 192.772H255.068V205.392Z" fill="#7B808C"></path><path d="M267.738 201.385C267.738 200.08 267.987 198.955 268.484 198.011C268.989 197.059 269.704 196.33 270.628 195.823C271.559 195.309 272.665 195.052 273.944 195.052C275.223 195.052 276.297 195.301 277.165 195.8C278.041 196.291 278.701 196.971 279.143 197.838C279.593 198.706 279.818 199.696 279.818 200.809V201.96H269.893C269.98 203.158 270.351 204.118 271.007 204.839C271.67 205.561 272.665 205.922 273.991 205.922C275.144 205.922 275.996 205.699 276.549 205.254C277.102 204.808 277.465 204.248 277.639 203.572H279.865C279.778 204.025 279.605 204.494 279.344 204.977C279.084 205.461 278.72 205.91 278.255 206.325C277.797 206.739 277.216 207.077 276.514 207.338C275.811 207.591 274.97 207.718 273.991 207.718C271.994 207.718 270.45 207.154 269.36 206.025C268.279 204.889 267.738 203.342 267.738 201.385ZM269.941 200.233H277.686C277.639 199.228 277.315 198.414 276.715 197.792C276.115 197.163 275.191 196.848 273.944 196.848C272.823 196.848 271.907 197.136 271.196 197.711C270.493 198.287 270.075 199.128 269.941 200.233Z" fill="#7B808C"></path><path d="M281.051 195.858V195.397H283.207L286.736 205.461C286.775 205.584 286.854 205.645 286.973 205.645C287.091 205.645 287.17 205.584 287.21 205.461L290.739 195.397H292.894V195.858L288.773 207.372H285.173L281.051 195.858Z" fill="#7B808C"></path><path d="M294.107 201.385C294.107 200.08 294.356 198.955 294.853 198.011C295.359 197.059 296.073 196.33 296.997 195.823C297.929 195.309 299.034 195.052 300.313 195.052C301.592 195.052 302.666 195.301 303.534 195.8C304.411 196.291 305.07 196.971 305.512 197.838C305.962 198.706 306.187 199.696 306.187 200.809V201.96H296.263C296.349 203.158 296.721 204.118 297.376 204.839C298.039 205.561 299.034 205.922 300.36 205.922C301.513 205.922 302.366 205.699 302.918 205.254C303.471 204.808 303.834 204.248 304.008 203.572H306.234C306.148 204.025 305.974 204.494 305.713 204.977C305.453 205.461 305.09 205.91 304.624 206.325C304.166 206.739 303.586 207.077 302.883 207.338C302.18 207.591 301.339 207.718 300.36 207.718C298.363 207.718 296.819 207.154 295.73 206.025C294.648 204.889 294.107 203.342 294.107 201.385ZM296.31 200.233H304.055C304.008 199.228 303.684 198.414 303.084 197.792C302.484 197.163 301.56 196.848 300.313 196.848C299.192 196.848 298.276 197.136 297.565 197.711C296.863 198.287 296.444 199.128 296.31 200.233Z" fill="#7B808C"></path><path d="M307.175 207.372V206.912L311.817 201.2L307.506 195.858V195.397H309.721L313.108 199.715C313.171 199.792 313.246 199.83 313.333 199.83C313.42 199.83 313.495 199.792 313.558 199.715L316.981 195.397H319.183V195.881L314.659 201.454L319.065 206.912V207.372H316.838L313.368 202.939C313.305 202.862 313.23 202.824 313.143 202.824C313.057 202.824 312.982 202.862 312.918 202.939L309.401 207.372H307.175Z" fill="#7B808C"></path><path d="M334.507 201.385C334.507 202.475 334.334 203.419 333.986 204.217C333.639 205.016 333.173 205.676 332.589 206.198C332.012 206.712 331.365 207.096 330.646 207.349C329.928 207.595 329.194 207.718 328.444 207.718C327.583 207.718 326.805 207.583 326.111 207.315C325.424 207.046 324.843 206.62 324.37 206.037C324.291 205.929 324.204 205.875 324.109 205.875C323.999 205.875 323.943 205.937 323.943 206.06V211.748H321.812V195.397H323.92V196.733C323.92 196.855 323.975 196.917 324.085 196.917C324.18 196.917 324.267 196.863 324.346 196.756C324.835 196.157 325.424 195.723 326.111 195.455C326.805 195.186 327.583 195.052 328.444 195.052C329.194 195.052 329.928 195.178 330.646 195.431C331.365 195.677 332.012 196.061 332.589 196.583C333.173 197.097 333.639 197.754 333.986 198.552C334.334 199.343 334.507 200.287 334.507 201.385ZM332.352 201.385C332.352 199.941 331.953 198.832 331.156 198.057C330.358 197.282 329.336 196.894 328.088 196.894C326.849 196.894 325.826 197.282 325.021 198.057C324.224 198.832 323.825 199.941 323.825 201.385C323.825 202.82 324.224 203.929 325.021 204.712C325.826 205.488 326.849 205.875 328.088 205.875C329.336 205.875 330.358 205.488 331.156 204.712C331.953 203.929 332.352 202.82 332.352 201.385Z" fill="#7B808C"></path><path d="M336.391 201.385C336.391 200.08 336.639 198.955 337.137 198.011C337.642 197.059 338.356 196.33 339.28 195.823C340.212 195.309 341.317 195.052 342.596 195.052C343.875 195.052 344.949 195.301 345.818 195.8C346.694 196.291 347.353 196.971 347.795 197.838C348.245 198.706 348.47 199.696 348.47 200.809V201.96H338.546C338.633 203.158 339.004 204.118 339.659 204.839C340.322 205.561 341.317 205.922 342.644 205.922C343.796 205.922 344.649 205.699 345.202 205.254C345.754 204.808 346.118 204.248 346.291 203.572H348.518C348.431 204.025 348.257 204.494 347.997 204.977C347.736 205.461 347.373 205.91 346.907 206.325C346.449 206.739 345.869 207.077 345.166 207.338C344.464 207.591 343.623 207.718 342.644 207.718C340.646 207.718 339.103 207.154 338.013 206.025C336.931 204.889 336.391 203.342 336.391 201.385ZM338.593 200.233H346.339C346.291 199.228 345.968 198.414 345.368 197.792C344.767 197.163 343.844 196.848 342.596 196.848C341.475 196.848 340.559 197.136 339.849 197.711C339.146 198.287 338.728 199.128 338.593 200.233Z" fill="#7B808C"></path><path d="M351.095 207.372V195.397H353.227V197.009C353.227 197.116 353.282 197.17 353.393 197.17C353.503 197.17 353.582 197.109 353.63 196.986C353.906 196.41 354.277 195.996 354.743 195.742C355.217 195.481 355.872 195.351 356.709 195.351H358.083V197.378H356.377C355.351 197.378 354.569 197.623 354.032 198.114C353.495 198.606 353.227 199.427 353.227 200.579V207.372H351.095Z" fill="#7B808C"></path><path d="M358.955 197.239V195.397H361.797V192.173H363.929V195.397H367.482V197.239H363.929V205.185C363.929 205.292 363.96 205.376 364.023 205.438C364.087 205.499 364.173 205.53 364.284 205.53H367.482V207.372H365.35C362.981 207.372 361.797 206.221 361.797 203.918V197.239H358.955Z" fill="#7B808C"></path><path d="M374.307 195.052C375.279 195.052 376.163 195.194 376.96 195.478C377.758 195.762 378.405 196.211 378.903 196.825C379.408 197.431 379.7 198.222 379.779 199.197H377.6C377.521 198.375 377.201 197.777 376.641 197.401C376.08 197.017 375.302 196.825 374.307 196.825C373.313 196.825 372.594 196.99 372.152 197.32C371.71 197.642 371.489 198.053 371.489 198.552C371.489 199.043 371.682 199.404 372.069 199.634C372.456 199.857 373.068 200.045 373.905 200.199L375.658 200.521C376.408 200.659 377.102 200.851 377.742 201.097C378.381 201.335 378.895 201.684 379.282 202.145C379.676 202.605 379.874 203.231 379.874 204.022C379.874 205.204 379.428 206.117 378.535 206.762C377.651 207.399 376.416 207.718 374.829 207.718C373.771 207.718 372.819 207.568 371.974 207.269C371.13 206.969 370.451 206.513 369.937 205.898C369.424 205.284 369.128 204.509 369.049 203.572H371.216C371.311 204.34 371.678 204.927 372.318 205.334C372.965 205.741 373.802 205.945 374.829 205.945C375.863 205.945 376.605 205.772 377.055 205.426C377.513 205.081 377.742 204.651 377.742 204.137C377.742 203.615 377.529 203.239 377.102 203.008C376.676 202.778 376.037 202.586 375.184 202.433L373.431 202.11C372.634 201.964 371.927 201.765 371.311 201.511C370.695 201.25 370.214 200.89 369.866 200.429C369.527 199.961 369.357 199.343 369.357 198.575C369.357 197.424 369.819 196.548 370.743 195.95C371.666 195.351 372.855 195.052 374.307 195.052Z" fill="#7B808C"></path><path d="M261.839 103V121.408H272.895L272.912 158.224L261.839 158.225V176.633H276.316C289.398 176.633 295.284 170.845 295.284 157.77V122.09C295.284 108.983 289.384 103 276.302 103L261.839 103ZM250.089 103H218V176.633H250.089V158.226L239.016 158.225V121.408H250.089V103Z" fill="url(#paint0_linear_2220_458)"></path><path d="M301.611 103L347.71 176.633H375.731L329.632 103H301.611Z" fill="url(#paint1_linear_2220_458)"></path><path d="M302.063 176.633H334.603L318.333 150.498L302.063 176.633Z" fill="url(#paint2_linear_2220_458)"></path><path d="M376.183 103L343.642 103L359.913 128.908L376.183 103Z" fill="url(#paint3_linear_2220_458)"></path><path d="M391.547 125.236L391.547 114.207H398.1V125.343H409.625V131.479H398.1V157.073C398.1 157.423 398.23 157.662 398.439 157.872C398.649 158.082 398.881 158.296 399.23 158.296H409.625V163.977H402.548C395.109 163.977 391.547 160.514 391.547 153.061V125.236Z" fill="#7B808C"></path><path d="M415.953 125.342H422.506V130.342C422.506 130.692 422.67 130.992 423.053 130.992C423.401 130.992 423.61 130.765 423.784 130.397C425.454 126.725 428.168 125.115 433.353 125.115H437.647V131.706H432.223C425.854 131.706 422.506 134.588 422.506 141.933V163.977H415.953V125.342Z" fill="#7B808C"></path><path d="M547.568 124.66C559.536 124.66 566.003 131.956 566.003 142.624V146.477H535.078C535.605 154.137 539.461 159.277 547.744 159.277C554.904 159.277 558.103 156.076 559.191 151.704H566.004C564.88 157.51 559.86 165.113 547.682 165.113C535.503 165.113 528.266 157.284 528.266 144.798C528.266 132.312 535.6 124.66 547.568 124.66ZM559.457 141.043C559.176 134.642 555.322 130.342 547.566 130.342C540.581 130.342 535.841 133.978 535.033 141.043H559.492H559.457Z" fill="#7B808C"></path><path d="M471.54 125.342V130.008C471.54 130.394 471.492 130.611 471.107 130.611C470.721 130.611 470.511 130.401 470.301 130.086C467.218 126.405 462.924 124.66 457.529 124.66C448.246 124.66 438.773 130.902 438.773 144.886C438.773 158.871 448.246 165.113 457.529 165.113C462.924 165.113 467.183 163.522 470.371 159.737C470.581 159.457 470.826 159.211 471.177 159.211C471.527 159.211 471.766 159.5 471.766 159.886V163.976L478.319 163.976V125.342H471.54ZM458.742 159.447C451.001 159.447 445.531 154.092 445.531 144.874C445.531 135.657 450.999 130.611 458.741 130.611C466.483 130.611 472.093 135.739 472.093 144.957C472.093 154.175 466.484 159.447 458.742 159.447Z" fill="#7B808C"></path><path d="M516.509 114.207V130.009C516.509 130.395 516.461 130.612 516.075 130.612C515.69 130.612 515.48 130.402 515.27 130.086C512.187 126.406 507.893 124.661 502.498 124.661C493.215 124.661 483.742 130.903 483.742 144.887C483.742 158.872 493.215 165.113 502.498 165.113C507.893 165.113 512.152 163.523 515.34 159.738C515.55 159.457 515.795 159.212 516.146 159.212C516.496 159.212 516.735 159.501 516.735 159.886V163.977H523.288V114.207H516.509ZM503.711 159.448C495.969 159.448 490.5 154.093 490.5 144.875C490.5 135.657 495.968 130.612 503.71 130.612C511.451 130.612 517.062 135.74 517.062 144.958C517.062 154.176 511.453 159.448 503.711 159.448Z" fill="#7B808C"></path><defs><linearGradient id="paint0_linear_2220_458" x1="410.817" y1="236.23" x2="353.284" y2="44.2603" gradientUnits="userSpaceOnUse"><stop offset="0.536458" stop-color="#2BB673"></stop><stop offset="0.94" stop-color="#364BB4"></stop></linearGradient><linearGradient id="paint1_linear_2220_458" x1="410.817" y1="236.23" x2="353.284" y2="44.2603" gradientUnits="userSpaceOnUse"><stop offset="0.536458" stop-color="#2BB673"></stop><stop offset="0.94" stop-color="#364BB4"></stop></linearGradient><linearGradient id="paint2_linear_2220_458" x1="410.817" y1="236.23" x2="353.284" y2="44.2603" gradientUnits="userSpaceOnUse"><stop offset="0.536458" stop-color="#2BB673"></stop><stop offset="0.94" stop-color="#364BB4"></stop></linearGradient><linearGradient id="paint3_linear_2220_458" x1="410.817" y1="236.23" x2="353.284" y2="44.2603" gradientUnits="userSpaceOnUse"><stop offset="0.536458" stop-color="#2BB673"></stop><stop offset="0.94" stop-color="#364BB4"></stop></linearGradient></defs></svg> 